<?xml version="1.0" encoding="iso-8859-1"?>
<!-- Generator: Adobe Illustrator 19.0.0, SVG Export Plug-In . SVG Version: 6.00 Build 0)  -->
<svg version="1.1" id="Capa_1" xmlns="http://www.w3.org/2000/svg" xmlns:xlink="http://www.w3.org/1999/xlink" x="0px" y="0px"
	 viewBox="0 0 512 512" style="enable-background:new 0 0 512 512;" xml:space="preserve">
<g>
	<g>
		<path d="M42.667,138.667V448H21.333V138.667H0v320c0,5.891,4.776,10.667,10.667,10.667h42.667c5.891,0,10.667-4.776,10.667-10.667
			v-320H42.667z"/>
	</g>
</g>
<g>
	<g>
		<path d="M501.333,42.667H10.667C4.776,42.667,0,47.442,0,53.333V96c0,11.782,9.551,21.333,21.333,21.333h469.333
			C502.449,117.333,512,107.782,512,96V53.333C512,47.442,507.224,42.667,501.333,42.667z M490.667,96H21.333V64h469.333V96z"/>
	</g>
</g>
<g>
	<g>
		<path d="M490.667,96v256H320V106.667h-21.333v256c0,5.891,4.776,10.667,10.667,10.667h192c5.891,0,10.667-4.776,10.667-10.667V96
			H490.667z"/>
	</g>
</g>
<g>
	<g>
		<path d="M490.667,394.667V448h-21.333v-53.333H448v64c0,5.891,4.776,10.667,10.667,10.667h42.667
			c5.891,0,10.667-4.776,10.667-10.667v-64H490.667z"/>
	</g>
</g>
<g>
	<g>
		<rect x="309.333" y="224" width="192" height="21.333"/>
	</g>
</g>
<g>
	<g>
		<rect x="384" y="160" width="42.667" height="21.333"/>
	</g>
</g>
<g>
	<g>
		<rect x="384" y="288" width="42.667" height="21.333"/>
	</g>
</g>
<g>
	<g>
		<rect x="53.333" y="181.333" width="256" height="21.333"/>
	</g>
</g>
<g>
	<g>
		<rect x="160" y="138.667" width="42.667" height="21.333"/>
	</g>
</g>
<g>
</g>
<g>
</g>
<g>
</g>
<g>
</g>
<g>
</g>
<g>
</g>
<g>
</g>
<g>
</g>
<g>
</g>
<g>
</g>
<g>
</g>
<g>
</g>
<g>
</g>
<g>
</g>
<g>
</g>
</svg>
