<?xml version="1.0" standalone="no"?>
<!DOCTYPE svg PUBLIC "-//W3C//DTD SVG 20010904//EN"
 "http://www.w3.org/TR/2001/REC-SVG-20010904/DTD/svg10.dtd">
<svg version="1.0" xmlns="http://www.w3.org/2000/svg"
 width="999.000000pt" height="883.000000pt" viewBox="0 0 999.000000 883.000000"
 preserveAspectRatio="xMidYMid meet">
<metadata>
Created by potrace 1.15, written by Peter Selinger 2001-2017
</metadata>
<g transform="translate(0.000000,883.000000) scale(0.100000,-0.100000)"
fill="#000000" stroke="none">
<path d="M1495 8821 c-107 -28 -139 -70 -294 -386 l-131 -268 0 -248 0 -249
-370 0 -370 0 -118 -59 c-175 -88 -212 -134 -212 -267 0 -89 22 -147 72 -190
17 -14 80 -50 139 -80 l109 -54 375 0 375 0 0 -3358 c0 -3708 -5 -3415 63
-3503 45 -59 98 -99 159 -120 52 -18 45 -18 -619 -19 -442 0 -673 -3 -673 -10
0 -7 1672 -10 4995 -10 3323 0 4995 3 4995 10 0 7 -1378 10 -4112 11 -3332 0
-4105 3 -4073 13 89 28 161 90 206 176 l24 45 3 3383 2 3382 766 0 c654 0 765
-2 762 -14 -2 -8 -77 -172 -168 -365 l-165 -351 -161 0 c-180 0 -243 -9 -321
-45 -66 -30 -161 -119 -196 -183 -60 -110 -57 -20 -57 -1752 0 -1732 -3 -1642
57 -1752 37 -67 121 -143 200 -181 l68 -32 3176 0 3175 0 75 37 c93 46 168
122 212 215 l32 68 0 1645 0 1645 -37 78 c-45 94 -112 163 -201 206 -85 42
-143 51 -331 51 l-161 0 -165 351 c-91 193 -166 357 -168 365 -3 11 101 14
660 16 l663 3 52 27 c68 36 120 90 152 158 34 73 37 191 5 261 -26 56 -76 114
-126 145 -91 58 185 54 -3975 54 l-3823 0 0 255 0 255 -131 262 c-72 144 -142
276 -155 293 -51 67 -176 108 -259 86z m6697 -2164 c92 -197 168 -361 168
-363 0 -2 -1062 -4 -2360 -4 -1298 0 -2360 2 -2360 3 0 2 66 143 146 313 80
170 156 333 169 362 l24 52 2022 -2 2022 -3 169 -358z m-2194 -792 c268 -25
469 -191 538 -445 26 -92 26 -348 1 -440 -63 -234 -219 -381 -462 -437 -116
-26 -360 -24 -466 5 -227 61 -376 205 -435 417 -25 93 -30 313 -10 415 60 294
258 460 586 490 83 7 122 7 248 -5z m-1008 -170 l0 -155 -320 0 -321 0 3 -112
3 -113 273 -3 272 -2 0 -150 0 -150 -275 0 -275 0 0 -235 0 -235 -210 0 -210
0 0 655 0 655 530 0 530 0 0 -155z m2735 141 c125 -33 213 -104 268 -215 30
-61 32 -73 32 -166 0 -89 -3 -107 -29 -162 -32 -70 -107 -148 -175 -182 l-42
-22 72 -137 c40 -75 103 -195 141 -265 37 -71 68 -133 68 -138 0 -5 -98 -9
-230 -9 l-230 0 -118 239 -117 240 -77 0 -78 1 0 -240 0 -240 -210 0 -210 0 0
655 0 655 443 0 c337 0 454 -3 492 -14z m-3574 -1806 c134 -41 222 -127 260
-252 56 -183 -21 -379 -181 -459 -25 -12 -46 -23 -47 -24 -3 -1 129 -252 243
-462 l45 -83 -239 0 -239 0 -51 109 c-28 60 -79 166 -113 235 l-62 126 -79 0
-78 0 0 -235 0 -235 -210 0 -210 0 0 650 0 650 449 0 c418 0 453 -1 512 -20z
m1649 -135 l0 -155 -355 0 -355 0 0 -90 0 -90 305 0 305 0 0 -150 0 -150 -305
0 -305 0 0 -100 0 -100 365 0 365 0 0 -155 0 -155 -575 0 -575 0 0 650 0 650
565 0 565 0 0 -155z m886 -161 l269 -317 3 317 2 316 195 0 195 0 0 -650 0
-650 -187 0 -188 1 -270 312 -270 311 -3 -312 -2 -312 -195 0 -195 0 0 650 0
650 189 0 188 0 269 -316z m2124 151 l0 -165 -215 0 -215 0 0 -485 0 -485
-210 0 -210 0 0 485 0 485 -215 0 -215 0 0 165 0 165 640 0 640 0 0 -165z"/>
<path d="M5768 5551 c-93 -30 -157 -100 -179 -194 -6 -31 -10 -108 -7 -192 3
-128 6 -144 30 -190 51 -97 118 -134 244 -135 105 0 173 31 221 103 43 64 56
135 51 286 -3 104 -7 135 -26 176 -47 102 -115 147 -232 151 -41 2 -87 0 -102
-5z"/>
<path d="M7210 5429 l0 -121 161 4 161 3 35 39 c33 36 35 42 30 89 -3 41 -10
56 -36 79 l-31 28 -160 0 -160 0 0 -121z"/>
<path d="M3610 3636 l0 -126 133 0 c154 0 196 9 231 51 44 51 32 139 -23 176
-22 15 -53 19 -183 21 l-158 4 0 -126z"/>
</g>
</svg>
